<svg width="31" height="30" viewBox="0 0 31 30" fill="none" xmlns="http://www.w3.org/2000/svg">
<path d="M30.1833 15.0917C30.1833 6.75677 23.4266 1.90735e-06 15.0917 1.90735e-06C6.75676 1.90735e-06 0 6.75677 0 15.0917C0 22.6244 5.51881 28.8678 12.7336 30V19.4541H8.90173V15.0917H12.7336V11.7668C12.7336 7.98444 14.9867 5.89518 18.4339 5.89518C20.0851 5.89518 21.8122 6.18994 21.8122 6.18994V9.90391H19.9092C18.0344 9.90391 17.4497 11.0672 17.4497 12.2607V15.0917H21.6353L20.9662 19.4541H17.4497V30C24.6645 28.8678 30.1833 22.6244 30.1833 15.0917Z" fill="#1877F2"/>
</svg>
