<svg width="829" height="1042" viewBox="0 0 829 1042" fill="none" xmlns="http://www.w3.org/2000/svg">
<path d="M359.509 -19.3762L360.742 -21.9788L397.439 -4.59129C400.678 -3.0567 403.836 -2.62257 406.914 -3.28893C409.991 -3.95528 412.809 -5.41771 415.366 -7.67622C417.982 -9.90733 420.099 -12.6575 421.719 -15.9268L425.189 -14.2826L415.118 6.9723L359.509 -19.3762ZM368.367 -16.7725L398.744 -80.8841L412.451 -74.3895L382.074 -10.2779L368.367 -16.7725ZM389.269 -82.1865L390.502 -84.7891L422.688 -69.5391L421.455 -66.9364L389.269 -82.1865ZM449.134 24.4703C444.102 22.0862 439.979 19.3536 436.765 16.2726C433.636 13.1611 431.631 9.76818 430.752 6.09377C429.93 2.44677 430.479 -1.401 432.397 -5.44955L454.183 -51.4295L445.768 -55.4167L447.001 -58.0193L478.319 -43.1803L477.086 -40.5777L467.89 -44.9348L446.351 0.524562C443.802 5.90335 443.31 10.3797 444.875 13.9538C446.497 17.5552 449.564 20.4246 454.075 22.5621C458.933 24.864 463.339 25.4292 467.294 24.2576C471.248 23.086 474.418 19.9843 476.802 14.9525L498.341 -30.5069L490.099 -34.4119L491.332 -37.0145L511.98 -27.2315L510.747 -24.6288L501.638 -28.9449L479.893 16.9483C476.933 23.1946 472.918 26.8868 467.846 28.0248C462.774 29.1628 456.537 27.9779 449.134 24.4703ZM483.625 39.4317L484.858 36.829L493.1 40.734L521.627 -19.4736L513.385 -23.3786L514.619 -25.9813L545.069 -11.5533L543.836 -8.95068L535.334 -12.979L506.807 47.2287L515.309 51.257L514.076 53.8596L483.625 39.4317ZM520.062 56.6959L521.336 54.0065L554.824 69.8731L553.549 72.5625L520.062 56.6959ZM531.003 60.2861L523.569 17.4584L539.14 12.6198L548.18 68.425L531.003 60.2861ZM516.399 21.6038L518.454 17.2661L565.324 -0.0442595L569.315 1.84658L516.399 21.6038ZM553.466 -4.388L554.699 -6.99063L579.251 4.64217L578.018 7.2448L553.466 -4.388ZM586.53 86.5957L591.248 35.6094L590.901 35.445L591.901 31.9885L606.433 16.5652L608.688 17.6339L601.539 93.707L586.53 86.5957ZM541.842 67.0156L543.075 64.4129L564.244 74.4426L563.01 77.0453L541.842 67.0156ZM565.757 56.6755L566.949 54.1596L596.792 68.2998L595.6 70.8157L565.757 56.6755ZM576.371 83.3755L577.604 80.7728L607.708 95.0364L606.474 97.639L576.371 83.3755ZM550.093 69.3315L606.433 16.5652L608.688 17.6339L597.641 29.2904L552.956 70.688L550.093 69.3315ZM618.1 103.147L619.333 100.544L627.835 104.573L657.846 86.0735L653.846 43.1731L647.513 40.1724L648.746 37.5698L680.151 52.4499L678.918 55.0525L670.156 50.9009L672.751 78.1571L696.616 63.438L687.42 59.0808L688.653 56.4782L708.693 65.9735L707.46 68.5762L699.739 64.9178L672.993 81.4585L677.458 128.085L683.965 131.168L682.732 133.771L651.934 119.178L653.167 116.576L661.062 120.316L658.088 89.3749L631.045 106.094L641.108 110.862L639.875 113.465L618.1 103.147ZM697.038 140.549L698.271 137.946L706.513 141.851L735.04 81.6438L726.798 77.7388L728.031 75.1361L758.482 89.5641L757.249 92.1667L748.747 88.1384L735.594 115.9L760.145 127.533L773.299 99.7712L764.797 95.7429L766.03 93.1403L796.654 107.65L795.421 110.253L787.006 106.266L758.479 166.474L766.894 170.461L765.661 173.063L735.037 158.553L736.27 155.951L744.772 159.979L758.912 130.135L734.36 118.503L720.22 148.346L728.722 152.374L727.489 154.977L697.038 140.549ZM810.364 192.651L815.081 141.664L814.734 141.5L815.735 138.043L830.266 122.62L832.522 123.689L825.372 199.762L810.364 192.651ZM765.676 173.07L766.909 170.468L788.077 180.498L786.844 183.1L765.676 173.07ZM789.59 162.73L790.782 160.214L820.626 174.355L819.434 176.871L789.59 162.73ZM800.204 189.43L801.437 186.828L831.541 201.091L830.308 203.694L800.204 189.43ZM773.927 175.386L830.266 122.62L832.522 123.689L821.475 135.345L776.79 176.743L773.927 175.386ZM883.288 230.177L870.784 154.778L870.437 154.614L845.322 207.621L854.865 212.142L853.631 214.745L830.728 203.893L831.961 201.29L841.504 205.812L870.031 145.604L860.488 141.083L861.722 138.48L887.054 150.483L896.177 202.078L896.524 202.242L913.582 166.239L904.907 162.129L906.14 159.526L927.308 169.556L926.075 172.158L917.399 168.048L887.105 231.986L883.288 230.177ZM931.384 252.966C926.872 250.828 923.089 247.902 920.033 244.188C917.035 240.501 914.814 236.369 913.372 231.79C911.987 227.239 911.415 222.542 911.656 217.698C911.955 212.883 913.16 208.248 915.27 203.795C917.38 199.341 920.19 195.503 923.7 192.279C927.296 189.025 931.266 186.551 935.61 184.856C940.039 183.13 944.616 182.289 949.341 182.332C954.123 182.403 958.77 183.507 963.281 185.644C967.793 187.782 971.59 190.678 974.673 194.335C977.757 197.991 980.004 202.066 981.416 206.559C982.914 211.022 983.513 215.662 983.214 220.478C983 225.263 981.839 229.882 979.728 234.336C977.618 238.789 974.766 242.643 971.17 245.897C967.632 249.178 963.635 251.71 959.178 253.494C954.779 255.304 950.175 256.204 945.365 256.191C940.555 256.178 935.895 255.103 931.384 252.966ZM932.736 249.888C935.685 251.286 938.378 252.03 940.813 252.122C943.276 252.156 945.649 251.332 947.932 249.652C950.273 248 952.649 245.301 955.061 241.557C957.53 237.84 960.231 232.888 963.163 226.699C966.095 220.511 968.204 215.313 969.489 211.106C970.859 206.869 971.429 203.35 971.198 200.549C971.052 197.718 970.172 195.389 968.559 193.563C966.973 191.678 964.706 190.037 961.756 188.639C958.864 187.269 956.187 186.567 953.724 186.534C951.347 186.469 949.03 187.248 946.774 188.871C944.518 190.493 942.156 193.163 939.686 196.879C937.302 200.565 934.658 205.474 931.753 211.605C928.766 217.909 926.574 223.208 925.176 227.504C923.864 231.768 923.28 235.316 923.426 238.147C923.657 240.948 924.537 243.277 926.065 245.134C927.678 246.961 929.902 248.545 932.736 249.888Z" fill="#FFFEFC" fill-opacity="0.18"/>
<path d="M158.533 420.966L159.766 418.363L196.464 435.751C199.702 437.285 202.861 437.719 205.938 437.053C209.016 436.387 211.834 434.924 214.391 432.666C217.006 430.434 219.124 427.684 220.744 424.415L224.214 426.059L214.143 447.314L158.533 420.966ZM167.391 423.569L197.768 359.458L211.476 365.952L181.099 430.064L167.391 423.569ZM188.293 358.155L189.527 355.553L221.713 370.803L220.479 373.405L188.293 358.155ZM248.159 464.812C243.127 462.428 239.004 459.695 235.789 456.614C232.66 453.503 230.656 450.11 229.777 446.436C228.955 442.789 229.504 438.941 231.422 434.892L253.208 388.912L244.792 384.925L246.026 382.322L277.344 397.161L276.111 399.764L266.915 395.407L245.376 440.866C242.827 446.245 242.335 450.722 243.899 454.296C245.521 457.897 248.588 460.766 253.099 462.904C257.958 465.206 262.364 465.771 266.319 464.599C270.273 463.428 273.442 460.326 275.826 455.294L297.366 409.835L289.124 405.93L290.357 403.327L311.005 413.11L309.772 415.713L300.662 411.397L278.918 457.29C275.958 463.536 271.942 467.229 266.871 468.367C261.799 469.505 255.562 468.32 248.159 464.812ZM282.65 479.773L283.883 477.171L292.125 481.076L320.652 420.868L312.41 416.963L313.643 414.361L344.094 428.788L342.861 431.391L334.359 427.363L305.832 487.57L314.334 491.599L313.101 494.201L282.65 479.773ZM319.087 497.038L320.361 494.348L353.848 510.215L352.574 512.904L319.087 497.038ZM330.027 500.628L322.593 457.8L338.165 452.962L347.205 508.767L330.027 500.628ZM315.424 461.946L317.479 457.608L364.349 440.298L368.34 442.188L315.424 461.946ZM352.491 435.954L353.724 433.351L378.275 444.984L377.042 447.587L352.491 435.954ZM385.555 526.938L390.273 475.951L389.925 475.787L390.926 472.33L405.457 456.907L407.713 457.976L400.563 534.049L385.555 526.938ZM340.867 507.357L342.1 504.755L363.268 514.784L362.035 517.387L340.867 507.357ZM364.781 497.017L365.974 494.501L395.817 508.642L394.625 511.158L364.781 497.017ZM375.395 523.717L376.628 521.115L406.732 535.378L405.499 537.981L375.395 523.717ZM349.118 509.673L405.457 456.907L407.713 457.976L396.666 469.632L351.981 511.03L349.118 509.673ZM417.124 543.489L418.357 540.886L426.859 544.915L456.871 526.415L452.871 483.515L446.537 480.514L447.771 477.912L479.176 492.792L477.943 495.394L469.18 491.243L471.776 518.499L495.641 503.78L486.445 499.423L487.678 496.82L507.718 506.315L506.485 508.918L498.764 505.26L472.017 521.8L476.483 568.427L482.99 571.51L481.756 574.112L450.958 559.52L452.192 556.917L460.086 560.658L457.112 529.717L430.069 546.436L440.133 551.204L438.9 553.806L417.124 543.489ZM496.063 580.891L497.296 578.288L505.538 582.193L534.065 521.986L525.823 518.081L527.056 515.478L557.507 529.906L556.274 532.509L547.772 528.48L534.618 556.242L559.17 567.874L572.323 540.113L563.821 536.085L565.055 533.482L595.679 547.992L594.446 550.595L586.031 546.608L557.504 606.815L565.919 610.803L564.686 613.405L534.061 598.895L535.294 596.292L543.796 600.321L557.937 570.477L533.385 558.844L519.245 588.688L527.747 592.716L526.514 595.319L496.063 580.891ZM609.388 632.992L614.106 582.006L613.759 581.842L614.759 578.385L629.291 562.962L631.546 564.031L624.397 640.104L609.388 632.992ZM564.701 613.412L565.934 610.81L587.102 620.839L585.869 623.442L564.701 613.412ZM588.615 603.072L589.807 600.556L619.651 614.696L618.459 617.212L588.615 603.072ZM599.229 629.772L600.462 627.17L630.566 641.433L629.333 644.036L599.229 629.772ZM572.951 615.728L629.291 562.962L631.546 564.031L620.499 575.687L575.814 617.085L572.951 615.728ZM682.312 670.519L669.809 595.12L669.462 594.955L644.346 647.962L653.889 652.484L652.656 655.087L629.753 644.235L630.986 641.632L640.529 646.154L669.056 585.946L659.513 581.424L660.746 578.822L686.079 590.825L695.201 642.42L695.548 642.584L712.607 606.581L703.931 602.47L705.165 599.868L726.333 609.897L725.1 612.5L716.424 608.39L686.13 672.328L682.312 670.519ZM730.408 693.307C725.897 691.17 722.113 688.244 719.057 684.53C716.059 680.843 713.839 676.71 712.397 672.132C711.012 667.581 710.44 662.883 710.681 658.04C710.98 653.224 712.184 648.59 714.294 644.136C716.405 639.683 719.215 635.845 722.725 632.621C726.32 629.367 730.29 626.893 734.635 625.198C739.064 623.472 743.641 622.631 748.366 622.674C753.148 622.744 757.795 623.848 762.306 625.986C766.817 628.123 770.614 631.02 773.698 634.677C776.781 638.333 779.029 642.408 780.441 646.901C781.938 651.364 782.537 656.003 782.239 660.819C782.025 665.605 780.863 670.224 778.753 674.678C776.643 679.131 773.79 682.985 770.195 686.238C766.657 689.52 762.66 692.052 758.203 693.835C753.804 695.646 749.2 696.545 744.39 696.533C739.58 696.52 734.919 695.445 730.408 693.307ZM731.76 690.23C734.71 691.627 737.402 692.372 739.838 692.464C742.3 692.497 744.673 691.674 746.957 689.994C749.298 688.341 751.674 685.643 754.085 681.899C756.555 678.182 759.255 673.23 762.188 667.041C765.12 660.853 767.228 655.655 768.513 651.448C769.884 647.211 770.453 643.692 770.222 640.891C770.076 638.06 769.197 635.731 767.584 633.904C765.998 632.02 763.73 630.379 760.781 628.981C757.889 627.611 755.211 626.909 752.749 626.875C750.371 626.811 748.055 627.59 745.799 629.213C743.543 630.835 741.18 633.504 738.711 637.221C736.327 640.907 733.683 645.816 730.778 651.946C727.791 658.25 725.599 663.55 724.201 667.845C722.888 672.11 722.305 675.658 722.451 678.489C722.682 681.29 723.561 683.619 725.089 685.476C726.703 687.302 728.926 688.887 731.76 690.23Z" fill="#FFFEFC" fill-opacity="0.18"/>
<path d="M56.2159 640.329L57.4491 637.726L94.1463 655.114C97.3851 656.648 100.543 657.082 103.621 656.416C106.699 655.75 109.516 654.287 112.074 652.029C114.689 649.798 116.806 647.047 118.426 643.778L121.896 645.422L111.826 666.677L56.2159 640.329ZM65.0742 642.932L95.451 578.821L109.158 585.315L78.7814 649.427L65.0742 642.932ZM85.9762 577.518L87.2093 574.916L119.395 590.166L118.162 592.768L85.9762 577.518ZM145.841 684.175C140.809 681.791 136.686 679.058 133.472 675.977C130.343 672.866 128.339 669.473 127.459 665.799C126.638 662.152 127.186 658.304 129.104 654.255L150.89 608.275L142.475 604.288L143.708 601.686L175.027 616.525L173.793 619.127L164.598 614.77L143.058 660.229C140.51 665.608 140.018 670.085 141.582 673.659C143.204 677.26 146.271 680.129 150.782 682.267C155.64 684.569 160.047 685.134 164.001 683.962C167.956 682.791 171.125 679.689 173.509 674.657L195.048 629.198L186.807 625.293L188.04 622.69L208.687 632.473L207.454 635.076L198.345 630.76L176.6 676.653C173.641 682.899 169.625 686.592 164.553 687.73C159.482 688.868 153.244 687.683 145.841 684.175ZM180.333 699.137L181.566 696.534L189.807 700.439L218.335 640.231L210.093 636.326L211.326 633.724L241.777 648.152L240.544 650.754L232.042 646.726L203.515 706.934L212.017 710.962L210.783 713.564L180.333 699.137ZM216.77 716.401L218.044 713.711L251.531 729.578L250.257 732.267L216.77 716.401ZM227.71 719.991L220.276 677.163L235.847 672.325L244.887 728.13L227.71 719.991ZM213.106 681.309L215.162 676.971L262.032 659.661L266.022 661.551L213.106 681.309ZM250.173 655.317L251.407 652.714L275.958 664.347L274.725 666.95L250.173 655.317ZM283.238 746.301L287.955 695.314L287.608 695.15L288.609 691.693L303.14 676.27L305.396 677.339L298.246 753.412L283.238 746.301ZM238.55 726.72L239.783 724.118L260.951 734.147L259.718 736.75L238.55 726.72ZM262.464 716.38L263.656 713.864L293.5 728.005L292.308 730.521L262.464 716.38ZM273.078 743.08L274.311 740.478L304.415 754.741L303.182 757.344L273.078 743.08ZM246.801 729.036L303.14 676.27L305.396 677.339L294.349 688.995L249.664 730.393L246.801 729.036ZM314.807 762.852L316.04 760.249L324.542 764.278L354.553 745.778L350.553 702.878L344.22 699.877L345.453 697.275L376.858 712.155L375.625 714.757L366.863 710.606L369.458 737.862L393.323 723.143L384.127 718.786L385.36 716.183L405.401 725.678L404.168 728.281L396.446 724.623L369.7 741.163L374.166 787.79L380.672 790.873L379.439 793.475L348.641 778.883L349.874 776.28L357.769 780.021L354.795 749.08L327.752 765.799L337.815 770.567L336.582 773.169L314.807 762.852ZM393.745 800.254L394.979 797.651L403.22 801.556L431.747 741.349L423.506 737.444L424.739 734.841L455.19 749.269L453.957 751.872L445.455 747.843L432.301 775.605L456.852 787.238L470.006 759.476L461.504 755.448L462.737 752.845L493.362 767.355L492.129 769.958L483.713 765.971L455.186 826.178L463.601 830.166L462.368 832.768L431.744 818.258L432.977 815.655L441.479 819.684L455.619 789.84L431.068 778.207L416.928 808.051L425.429 812.079L424.196 814.682L393.745 800.254ZM507.071 852.355L511.789 801.369L511.442 801.205L512.442 797.748L526.974 782.325L529.229 783.394L522.08 859.467L507.071 852.355ZM462.383 832.775L463.616 830.173L484.785 840.202L483.551 842.805L462.383 832.775ZM486.298 822.435L487.49 819.919L517.333 834.06L516.141 836.575L486.298 822.435ZM496.912 849.135L498.145 846.533L528.249 860.796L527.015 863.399L496.912 849.135ZM470.634 835.091L526.974 782.325L529.229 783.394L518.182 795.05L473.497 836.448L470.634 835.091ZM579.995 889.882L567.491 814.483L567.144 814.318L542.029 867.325L551.572 871.847L550.339 874.45L527.436 863.598L528.669 860.995L538.212 865.517L566.739 805.309L557.196 800.788L558.429 798.185L583.761 810.188L592.884 861.783L593.231 861.947L610.29 825.944L601.614 821.833L602.847 819.231L624.015 829.26L622.782 831.863L614.107 827.753L583.812 891.691L579.995 889.882ZM628.091 912.67C623.58 910.533 619.796 907.607 616.74 903.893C613.742 900.206 611.522 896.073 610.079 891.495C608.695 886.944 608.123 882.246 608.364 877.403C608.663 872.587 609.867 867.953 611.977 863.499C614.087 859.046 616.897 855.208 620.408 851.984C624.003 848.73 627.973 846.256 632.317 844.561C636.747 842.835 641.324 841.994 646.048 842.037C650.831 842.107 655.477 843.211 659.989 845.349C664.5 847.486 668.297 850.383 671.381 854.04C674.464 857.696 676.712 861.771 678.124 866.264C679.621 870.727 680.22 875.367 679.921 880.182C679.708 884.968 678.546 889.587 676.436 894.041C674.326 898.494 671.473 902.348 667.877 905.601C664.34 908.883 660.343 911.415 655.886 913.198C651.487 915.009 646.882 915.908 642.073 915.896C637.263 915.883 632.602 914.808 628.091 912.67ZM629.443 909.593C632.393 910.991 635.085 911.735 637.52 911.827C639.983 911.86 642.356 911.037 644.639 909.357C646.981 907.704 649.357 905.006 651.768 901.262C654.237 897.545 656.938 892.593 659.87 886.404C662.802 880.216 664.911 875.018 666.196 870.811C667.566 866.574 668.136 863.055 667.905 860.254C667.759 857.423 666.88 855.094 665.266 853.267C663.681 851.383 661.413 849.742 658.463 848.344C655.571 846.974 652.894 846.272 650.431 846.238C648.054 846.174 645.737 846.953 643.481 848.576C641.225 850.198 638.863 852.867 636.394 856.584C634.01 860.27 631.365 865.179 628.461 871.309C625.474 877.614 623.281 882.913 621.884 887.208C620.571 891.473 619.988 895.021 620.134 897.852C620.365 900.653 621.244 902.982 622.772 904.839C624.385 906.665 626.609 908.25 629.443 909.593Z" fill="#FFFEFC" fill-opacity="0.18"/>
<path d="M259.936 201.199L261.169 198.596L297.866 215.983C301.105 217.518 304.263 217.952 307.341 217.286C310.419 216.619 313.236 215.157 315.793 212.898C318.409 210.667 320.526 207.917 322.146 204.648L325.616 206.292L315.545 227.547L259.936 201.199ZM268.794 203.802L299.171 139.691L312.878 146.185L282.501 210.297L268.794 203.802ZM289.696 138.388L290.929 135.786L323.115 151.036L321.882 153.638L289.696 138.388ZM349.561 245.045C344.529 242.661 340.406 239.928 337.192 236.847C334.063 233.736 332.059 230.343 331.179 226.668C330.358 223.021 330.906 219.174 332.824 215.125L354.61 169.145L346.195 165.158L347.428 162.555L378.746 177.394L377.513 179.997L368.317 175.64L346.778 221.099C344.23 226.478 343.737 230.954 345.302 234.528C346.924 238.13 349.991 240.999 354.502 243.137C359.36 245.439 363.767 246.004 367.721 244.832C371.676 243.661 374.845 240.559 377.229 235.527L398.768 190.068L390.526 186.163L391.76 183.56L412.407 193.343L411.174 195.946L402.065 191.63L380.32 237.523C377.361 243.769 373.345 247.461 368.273 248.599C363.201 249.737 356.964 248.553 349.561 245.045ZM384.052 260.006L385.285 257.404L393.527 261.309L422.054 201.101L413.813 197.196L415.046 194.593L445.497 209.021L444.263 211.624L435.761 207.596L407.234 267.803L415.736 271.832L414.503 274.434L384.052 260.006ZM420.489 277.271L421.764 274.581L455.251 290.448L453.977 293.137L420.489 277.271ZM431.43 280.861L423.996 238.033L439.567 233.195L448.607 289L431.43 280.861ZM416.826 242.179L418.881 237.841L465.751 220.53L469.742 222.421L416.826 242.179ZM453.893 216.187L455.126 213.584L479.678 225.217L478.445 227.82L453.893 216.187ZM486.957 307.17L491.675 256.184L491.328 256.02L492.328 252.563L506.86 237.14L509.115 238.209L501.966 314.282L486.957 307.17ZM442.269 287.59L443.503 284.988L464.671 295.017L463.438 297.62L442.269 287.59ZM466.184 277.25L467.376 274.734L497.22 288.875L496.028 291.39L466.184 277.25ZM476.798 303.95L478.031 301.348L508.135 315.611L506.902 318.214L476.798 303.95ZM450.52 289.906L506.86 237.14L509.115 238.209L498.068 249.865L453.383 291.263L450.52 289.906ZM518.527 323.722L519.76 321.119L528.262 325.148L558.273 306.648L554.273 263.748L547.94 260.747L549.173 258.144L580.578 273.025L579.345 275.627L570.583 271.476L573.178 298.732L597.043 284.013L587.847 279.656L589.08 277.053L609.12 286.548L607.887 289.151L600.166 285.492L573.42 302.033L577.885 348.66L584.392 351.743L583.159 354.345L552.361 339.753L553.594 337.15L561.489 340.891L558.515 309.95L531.472 326.668L541.535 331.437L540.302 334.039L518.527 323.722ZM597.465 361.124L598.698 358.521L606.94 362.426L635.467 302.218L627.225 298.313L628.459 295.711L658.909 310.139L657.676 312.741L649.174 308.713L636.021 336.475L660.572 348.107L673.726 320.346L665.224 316.318L666.457 313.715L697.081 328.225L695.848 330.828L687.433 326.841L658.906 387.048L667.321 391.035L666.088 393.638L635.464 379.128L636.697 376.525L645.199 380.554L659.339 350.71L634.787 339.077L620.647 368.921L629.149 372.949L627.916 375.552L597.465 361.124ZM710.791 413.225L715.509 362.239L715.162 362.075L716.162 358.618L730.693 343.195L732.949 344.263L725.799 420.337L710.791 413.225ZM666.103 393.645L667.336 391.043L688.504 401.072L687.271 403.675L666.103 393.645ZM690.018 383.305L691.21 380.789L721.053 394.929L719.861 397.445L690.018 383.305ZM700.631 410.005L701.864 407.402L731.968 421.666L730.735 424.269L700.631 410.005ZM674.354 395.961L730.693 343.195L732.949 344.263L721.902 355.92L677.217 397.318L674.354 395.961ZM783.715 450.752L771.211 375.353L770.864 375.188L745.749 428.195L755.292 432.717L754.059 435.319L731.155 424.468L732.389 421.865L741.932 426.387L770.459 366.179L760.916 361.657L762.149 359.055L787.481 371.057L796.604 422.653L796.951 422.817L814.009 386.814L805.334 382.703L806.567 380.101L827.735 390.13L826.502 392.733L817.827 388.622L787.532 452.561L783.715 450.752ZM831.811 473.54C827.299 471.403 823.516 468.477 820.46 464.763C817.462 461.076 815.242 456.943 813.799 452.365C812.414 447.814 811.843 443.116 812.084 438.273C812.382 433.457 813.587 428.823 815.697 424.369C817.807 419.916 820.617 416.077 824.127 412.854C827.723 409.6 831.693 407.126 836.037 405.431C840.466 403.705 845.043 402.864 849.768 402.907C854.55 402.977 859.197 404.081 863.708 406.219C868.22 408.356 872.017 411.253 875.1 414.91C878.184 418.566 880.431 422.641 881.843 427.134C883.341 431.597 883.94 436.236 883.641 441.052C883.427 445.838 882.266 450.457 880.156 454.91C878.046 459.364 875.193 463.217 871.597 466.471C868.06 469.753 864.062 472.285 859.605 474.068C855.206 475.879 850.602 476.778 845.792 476.766C840.982 476.753 836.322 475.678 831.811 473.54ZM833.163 470.463C836.112 471.86 838.805 472.605 841.24 472.697C843.703 472.73 846.076 471.907 848.359 470.227C850.7 468.574 853.077 465.876 855.488 462.132C857.957 458.415 860.658 453.462 863.59 447.274C866.522 441.085 868.631 435.888 869.916 431.681C871.286 427.444 871.856 423.925 871.625 421.124C871.479 418.293 870.599 415.964 868.986 414.137C867.4 412.253 865.133 410.612 862.183 409.214C859.291 407.844 856.614 407.142 854.151 407.108C851.774 407.044 849.457 407.823 847.201 409.445C844.945 411.068 842.583 413.737 840.113 417.454C837.729 421.14 835.085 426.049 832.18 432.179C829.193 438.483 827.001 443.783 825.603 448.078C824.291 452.343 823.707 455.891 823.853 458.722C824.084 461.523 824.964 463.852 826.492 465.709C828.105 467.535 830.329 469.12 833.163 470.463Z" fill="#FFFEFC" fill-opacity="0.18"/>
<path d="M309.722 90.9112L310.955 88.3085L319.197 92.2135L347.724 32.0058L339.482 28.1008L340.716 25.4982L371.166 39.9262L369.933 42.5288L361.431 38.5005L348.278 66.2619L372.829 77.8947L385.983 50.1333L377.481 46.105L378.714 43.5023L409.338 58.0125L408.105 60.6151L399.69 56.6279L371.163 116.836L379.578 120.823L378.345 123.425L347.721 108.915L348.954 106.313L357.456 110.341L371.596 80.4974L347.044 68.8646L332.904 98.7082L341.406 102.736L340.173 105.339L309.722 90.9112ZM423.048 143.013L427.765 92.0264L427.418 91.8619L428.419 88.4054L442.95 72.9821L445.206 74.0508L438.056 150.124L423.048 143.013ZM378.36 123.433L379.593 120.83L400.761 130.86L399.528 133.462L378.36 123.433ZM402.274 113.092L403.466 110.577L433.31 124.717L432.118 127.233L402.274 113.092ZM412.888 139.792L414.121 137.19L444.225 151.453L442.992 154.056L412.888 139.792ZM386.611 125.748L442.95 72.9821L445.206 74.0508L434.159 85.7073L389.474 127.105L386.611 125.748ZM495.972 180.539L483.468 105.14L483.121 104.976L458.006 157.983L467.549 162.504L466.315 165.107L443.412 154.255L444.645 151.652L454.188 156.174L482.716 95.9663L473.173 91.4447L474.406 88.8421L499.738 100.845L508.861 152.44L509.208 152.604L526.266 116.601L517.591 112.491L518.824 109.888L539.992 119.918L538.759 122.52L530.084 118.41L499.789 182.348L495.972 180.539ZM544.068 203.328C539.556 201.19 535.773 198.264 532.717 194.55C529.719 190.863 527.498 186.731 526.056 182.152C524.671 177.601 524.1 172.904 524.34 168.06C524.639 163.245 525.844 158.61 527.954 154.157C530.064 149.703 532.874 145.865 536.384 142.641C539.98 139.388 543.95 136.913 548.294 135.218C552.723 133.492 557.3 132.651 562.025 132.694C566.807 132.765 571.454 133.869 575.965 136.006C580.477 138.144 584.274 141.041 587.357 144.697C590.441 148.353 592.688 152.428 594.1 156.921C595.598 161.384 596.197 166.024 595.898 170.84C595.684 175.625 594.523 180.244 592.413 184.698C590.302 189.151 587.45 193.005 583.854 196.259C580.316 199.54 576.319 202.072 571.862 203.856C567.463 205.667 562.859 206.566 558.049 206.553C553.239 206.54 548.579 205.465 544.068 203.328ZM545.42 200.25C548.369 201.648 551.062 202.392 553.497 202.484C555.96 202.518 558.333 201.694 560.616 200.014C562.957 198.362 565.333 195.663 567.745 191.919C570.214 188.202 572.915 183.25 575.847 177.061C578.779 170.873 580.888 165.675 582.173 161.468C583.543 157.231 584.113 153.712 583.882 150.911C583.736 148.08 582.856 145.751 581.243 143.925C579.657 142.04 577.39 140.399 574.44 139.001C571.548 137.631 568.871 136.929 566.408 136.896C564.031 136.831 561.714 137.61 559.458 139.233C557.202 140.855 554.84 143.525 552.37 147.241C549.986 150.927 547.342 155.836 544.437 161.967C541.45 168.271 539.258 173.57 537.86 177.866C536.548 182.13 535.964 185.678 536.11 188.509C536.341 191.31 537.221 193.639 538.749 195.496C540.362 197.323 542.586 198.907 545.42 200.25ZM593.306 225.276L594.539 222.674L603.041 226.702L633.052 208.203L629.052 165.302L622.719 162.302L623.952 159.699L655.357 174.579L654.124 177.182L645.362 173.03L647.957 200.286L671.822 185.567L662.626 181.21L663.859 178.607L683.9 188.103L682.667 190.705L674.945 187.047L648.199 203.588L652.665 250.214L659.171 253.297L657.938 255.9L627.14 241.307L628.373 238.705L636.268 242.445L633.294 211.504L606.251 228.223L616.314 232.991L615.081 235.594L593.306 225.276ZM672.244 262.678L673.478 260.076L710.175 277.463C713.414 278.998 716.572 279.432 719.65 278.766C722.727 278.099 725.545 276.637 728.102 274.378C730.717 272.147 732.835 269.397 734.455 266.128L737.925 267.772L727.854 289.027L672.244 262.678ZM681.103 265.282L711.479 201.17L725.187 207.665L694.81 271.777L681.103 265.282ZM702.005 199.868L703.238 197.265L735.424 212.515L734.191 215.118L702.005 199.868ZM761.87 306.525C756.838 304.141 752.715 301.408 749.501 298.327C746.372 295.216 744.367 291.823 743.488 288.148C742.666 284.501 743.215 280.653 745.133 276.605L766.919 230.625L758.504 226.638L759.737 224.035L791.055 238.874L789.822 241.477L780.626 237.12L759.087 282.579C756.538 287.958 756.046 292.434 757.611 296.008C759.233 299.61 762.299 302.479 766.811 304.617C771.669 306.919 776.075 307.484 780.03 306.312C783.984 305.14 787.154 302.039 789.538 297.007L811.077 251.548L802.835 247.643L804.068 245.04L824.716 254.823L823.483 257.426L814.374 253.11L792.629 299.003C789.669 305.249 785.654 308.941 780.582 310.079C775.51 311.217 769.273 310.032 761.87 306.525ZM796.361 321.486L797.594 318.884L805.836 322.789L834.363 262.581L826.121 258.676L827.354 256.073L857.805 270.501L856.572 273.104L848.07 269.075L819.543 329.283L828.045 333.311L826.812 335.914L796.361 321.486ZM832.798 338.75L834.072 336.061L867.56 351.928L866.285 354.617L832.798 338.75ZM843.738 342.341L836.304 299.513L851.876 294.674L860.916 350.479L843.738 342.341ZM829.135 303.658L831.19 299.321L878.06 282.01L882.051 283.901L829.135 303.658ZM866.202 277.667L867.435 275.064L891.987 286.697L890.753 289.299L866.202 277.667ZM899.266 368.65L903.984 317.664L903.637 317.5L904.637 314.043L919.168 298.62L921.424 299.688L914.275 375.761L899.266 368.65ZM854.578 349.07L855.811 346.467L876.979 356.497L875.746 359.1L854.578 349.07ZM878.493 338.73L879.685 336.214L909.528 350.354L908.336 352.87L878.493 338.73ZM889.106 365.43L890.34 362.827L920.443 377.091L919.21 379.694L889.106 365.43ZM862.829 351.386L919.168 298.62L921.424 299.688L910.377 311.345L865.692 352.742L862.829 351.386Z" fill="#FFFEFC" fill-opacity="0.18"/>
<path d="M213.808 313.102L215.042 310.499L223.283 314.404L251.81 254.197L243.569 250.292L244.802 247.689L275.253 262.117L274.019 264.719L265.518 260.691L252.364 288.453L276.915 300.085L290.069 272.324L281.567 268.296L282.8 265.693L313.425 280.203L312.191 282.806L303.776 278.819L275.249 339.026L283.664 343.013L282.431 345.616L251.807 331.106L253.04 328.503L261.542 332.532L275.682 302.688L251.131 291.055L236.99 320.899L245.492 324.927L244.259 327.53L213.808 313.102ZM327.134 365.203L331.852 314.217L331.505 314.053L332.505 310.596L347.036 295.173L349.292 296.242L342.143 372.315L327.134 365.203ZM282.446 345.623L283.679 343.021L304.847 353.05L303.614 355.653L282.446 345.623ZM306.361 335.283L307.553 332.767L337.396 346.907L336.204 349.423L306.361 335.283ZM316.974 361.983L318.208 359.38L348.311 373.644L347.078 376.247L316.974 361.983ZM290.697 347.939L347.036 295.173L349.292 296.242L338.245 307.898L293.56 349.296L290.697 347.939ZM400.058 402.73L387.554 327.331L387.207 327.166L362.092 380.173L371.635 384.695L370.402 387.298L347.499 376.446L348.732 373.843L358.275 378.365L386.802 318.157L377.259 313.635L378.492 311.033L403.824 323.036L412.947 374.631L413.294 374.795L430.353 338.792L421.677 334.681L422.91 332.079L444.078 342.108L442.845 344.711L434.17 340.6L403.875 404.539L400.058 402.73ZM448.154 425.518C443.643 423.381 439.859 420.455 436.803 416.741C433.805 413.054 431.585 408.921 430.142 404.343C428.758 399.792 428.186 395.094 428.427 390.251C428.726 385.435 429.93 380.801 432.04 376.347C434.15 371.894 436.96 368.055 440.471 364.832C444.066 361.578 448.036 359.104 452.38 357.409C456.81 355.683 461.387 354.842 466.111 354.885C470.894 354.955 475.54 356.059 480.052 358.197C484.563 360.334 488.36 363.231 491.444 366.888C494.527 370.544 496.775 374.619 498.187 379.112C499.684 383.575 500.283 388.214 499.984 393.03C499.771 397.816 498.609 402.435 496.499 406.889C494.389 411.342 491.536 415.196 487.94 418.449C484.403 421.731 480.405 424.263 475.949 426.046C471.55 427.857 466.945 428.756 462.135 428.744C457.326 428.731 452.665 427.656 448.154 425.518ZM449.506 422.441C452.455 423.838 455.148 424.583 457.583 424.675C460.046 424.708 462.419 423.885 464.702 422.205C467.043 420.552 469.42 417.854 471.831 414.11C474.3 410.393 477.001 405.441 479.933 399.252C482.865 393.064 484.974 387.866 486.259 383.659C487.629 379.422 488.199 375.903 487.968 373.102C487.822 370.271 486.943 367.942 485.329 366.115C483.744 364.231 481.476 362.59 478.526 361.192C475.634 359.822 472.957 359.12 470.494 359.086C468.117 359.022 465.8 359.801 463.544 361.423C461.288 363.046 458.926 365.715 456.457 369.432C454.073 373.118 451.428 378.027 448.523 384.157C445.536 390.461 443.344 395.761 441.946 400.056C440.634 404.321 440.051 407.869 440.196 410.7C440.428 413.501 441.307 415.83 442.835 417.687C444.448 419.513 446.672 421.098 449.506 422.441ZM497.392 447.467L498.625 444.864L507.127 448.893L537.139 430.393L533.138 387.493L526.805 384.492L528.039 381.89L559.444 396.77L558.211 399.372L549.448 395.221L552.044 422.477L575.908 407.758L566.712 403.401L567.946 400.798L587.986 410.293L586.753 412.896L579.032 409.238L552.285 425.778L556.751 472.405L563.257 475.488L562.024 478.09L531.226 463.498L532.46 460.895L540.354 464.636L537.38 433.695L510.337 450.414L520.401 455.182L519.168 457.784L497.392 447.467ZM576.331 484.869L577.564 482.266L614.261 499.654C617.5 501.188 620.658 501.623 623.736 500.956C626.814 500.29 629.631 498.827 632.188 496.569C634.804 494.338 636.921 491.588 638.541 488.318L642.011 489.963L631.94 511.217L576.331 484.869ZM585.189 487.473L615.566 423.361L629.273 429.856L598.896 493.967L585.189 487.473ZM606.091 422.059L607.324 419.456L639.51 434.706L638.277 437.309L606.091 422.059ZM665.956 528.715C660.924 526.331 656.801 523.599 653.587 520.518C650.458 517.406 648.454 514.013 647.574 510.339C646.753 506.692 647.301 502.844 649.219 498.796L671.005 452.816L662.59 448.828L663.823 446.226L695.141 461.065L693.908 463.667L684.712 459.31L663.173 504.77C660.625 510.149 660.132 514.625 661.697 518.199C663.319 521.8 666.386 524.67 670.897 526.807C675.755 529.109 680.162 529.674 684.116 528.503C688.071 527.331 691.24 524.229 693.624 519.198L715.163 473.738L706.921 469.833L708.155 467.231L728.802 477.014L727.569 479.616L718.46 475.3L696.715 521.193C693.755 527.44 689.74 531.132 684.668 532.27C679.596 533.408 673.359 532.223 665.956 528.715ZM700.447 543.677L701.68 541.074L709.922 544.979L738.449 484.772L730.208 480.867L731.441 478.264L761.892 492.692L760.658 495.294L752.156 491.266L723.629 551.474L732.131 555.502L730.898 558.105L700.447 543.677ZM736.884 560.941L738.159 558.252L771.646 574.118L770.372 576.808L736.884 560.941ZM747.825 564.531L740.391 521.704L755.962 516.865L765.002 572.67L747.825 564.531ZM733.221 525.849L735.276 521.511L782.146 504.201L786.137 506.092L733.221 525.849ZM770.288 499.857L771.521 497.255L796.073 508.887L794.84 511.49L770.288 499.857ZM803.352 590.841L808.07 539.855L807.723 539.69L808.723 536.234L823.255 520.81L825.51 521.879L818.361 597.952L803.352 590.841ZM758.664 571.261L759.898 568.658L781.066 578.688L779.833 581.29L758.664 571.261ZM782.579 560.921L783.771 558.405L813.615 572.545L812.423 575.061L782.579 560.921ZM793.193 587.621L794.426 585.018L824.53 599.282L823.297 601.884L793.193 587.621ZM766.915 573.577L823.255 520.81L825.51 521.879L814.463 533.536L769.778 574.933L766.915 573.577Z" fill="#FFFEFC" fill-opacity="0.18"/>
<path d="M116.98 534.888L118.213 532.285L126.455 536.19L154.982 475.983L146.74 472.078L147.973 469.475L178.424 483.903L177.191 486.506L168.689 482.477L155.535 510.239L180.087 521.872L193.241 494.11L184.739 490.082L185.972 487.479L216.596 501.989L215.363 504.592L206.948 500.605L178.421 560.812L186.836 564.8L185.603 567.402L154.979 552.892L156.212 550.289L164.714 554.318L178.854 524.474L154.302 512.841L140.162 542.685L148.664 546.713L147.431 549.316L116.98 534.888ZM230.306 586.989L235.023 536.003L234.676 535.839L235.677 532.382L250.208 516.959L252.464 518.028L245.314 594.101L230.306 586.989ZM185.618 567.409L186.851 564.807L208.019 574.836L206.786 577.439L185.618 567.409ZM209.532 557.069L210.724 554.553L240.568 568.694L239.376 571.209L209.532 557.069ZM220.146 583.769L221.379 581.167L251.483 595.43L250.25 598.033L220.146 583.769ZM193.869 569.725L250.208 516.959L252.464 518.028L241.417 529.684L196.732 571.082L193.869 569.725ZM303.23 624.516L290.726 549.117L290.379 548.952L265.264 601.959L274.807 606.481L273.573 609.084L250.67 598.232L251.903 595.629L261.446 600.151L289.973 539.943L280.43 535.422L281.664 532.819L306.996 544.822L316.118 596.417L316.466 596.581L333.524 560.578L324.849 556.467L326.082 553.865L347.25 563.895L346.017 566.497L337.341 562.387L307.047 626.325L303.23 624.516ZM351.326 647.305C346.814 645.167 343.031 642.241 339.975 638.527C336.977 634.84 334.756 630.707 333.314 626.129C331.929 621.578 331.357 616.881 331.598 612.037C331.897 607.221 333.102 602.587 335.212 598.133C337.322 593.68 340.132 589.842 343.642 586.618C347.238 583.364 351.208 580.89 355.552 579.195C359.981 577.469 364.558 576.628 369.283 576.671C374.065 576.741 378.712 577.845 383.223 579.983C387.734 582.12 391.532 585.017 394.615 588.674C397.699 592.33 399.946 596.405 401.358 600.898C402.856 605.361 403.455 610.001 403.156 614.816C402.942 619.602 401.78 624.221 399.67 628.675C397.56 633.128 394.708 636.982 391.112 640.236C387.574 643.517 383.577 646.049 379.12 647.833C374.721 649.643 370.117 650.542 365.307 650.53C360.497 650.517 355.837 649.442 351.326 647.305ZM352.677 644.227C355.627 645.625 358.32 646.369 360.755 646.461C363.218 646.494 365.591 645.671 367.874 643.991C370.215 642.338 372.591 639.64 375.003 635.896C377.472 632.179 380.173 627.227 383.105 621.038C386.037 614.85 388.146 609.652 389.431 605.445C390.801 601.208 391.371 597.689 391.14 594.888C390.994 592.057 390.114 589.728 388.501 587.901C386.915 586.017 384.647 584.376 381.698 582.978C378.806 581.608 376.129 580.906 373.666 580.872C371.288 580.808 368.972 581.587 366.716 583.21C364.46 584.832 362.097 587.501 359.628 591.218C357.244 594.904 354.6 599.813 351.695 605.943C348.708 612.248 346.516 617.547 345.118 621.842C343.806 626.107 343.222 629.655 343.368 632.486C343.599 635.287 344.479 637.616 346.007 639.473C347.62 641.299 349.843 642.884 352.677 644.227ZM400.564 669.253L401.797 666.651L410.299 670.679L440.31 652.179L436.31 609.279L429.977 606.278L431.21 603.676L462.615 618.556L461.382 621.159L452.62 617.007L455.215 644.263L479.08 629.544L469.884 625.187L471.117 622.584L491.158 632.08L489.924 634.682L482.203 631.024L455.457 647.565L459.923 694.191L466.429 697.274L465.196 699.877L434.398 685.284L435.631 682.682L443.526 686.422L440.552 655.481L413.509 672.2L423.572 676.968L422.339 679.571L400.564 669.253ZM479.502 706.655L480.735 704.052L517.433 721.44C520.671 722.975 523.83 723.409 526.908 722.742C529.985 722.076 532.803 720.614 535.36 718.355C537.975 716.124 540.093 713.374 541.713 710.105L545.183 711.749L535.112 733.004L479.502 706.655ZM488.361 709.259L518.737 645.147L532.445 651.642L502.068 715.753L488.361 709.259ZM509.263 643.845L510.496 641.242L542.682 656.492L541.448 659.095L509.263 643.845ZM569.128 750.502C564.096 748.117 559.973 745.385 556.758 742.304C553.629 739.192 551.625 735.799 550.746 732.125C549.924 728.478 550.473 724.63 552.391 720.582L574.177 674.602L565.761 670.615L566.995 668.012L598.313 682.851L597.08 685.454L587.884 681.096L566.345 726.556C563.796 731.935 563.304 736.411 564.868 739.985C566.491 743.586 569.557 746.456 574.069 748.593C578.927 750.895 583.333 751.46 587.288 750.289C591.242 749.117 594.411 746.016 596.796 740.984L618.335 695.524L610.093 691.619L611.326 689.017L631.974 698.8L630.741 701.402L621.631 697.086L599.887 742.98C596.927 749.226 592.911 752.918 587.84 754.056C582.768 755.194 576.531 754.009 569.128 750.502ZM603.619 765.463L604.852 762.86L613.094 766.765L641.621 706.558L633.379 702.653L634.612 700.05L665.063 714.478L663.83 717.081L655.328 713.052L626.801 773.26L635.303 777.288L634.07 779.891L603.619 765.463ZM640.056 782.727L641.33 780.038L674.817 795.904L673.543 798.594L640.056 782.727ZM650.996 786.317L643.562 743.49L659.134 738.651L668.174 794.456L650.996 786.317ZM636.393 747.635L638.448 743.297L685.318 725.987L689.309 727.878L636.393 747.635ZM673.46 721.643L674.693 719.041L699.245 730.673L698.011 733.276L673.46 721.643ZM706.524 812.627L711.242 761.641L710.895 761.476L711.895 758.02L726.426 742.596L728.682 743.665L721.532 819.738L706.524 812.627ZM661.836 793.047L663.069 790.444L684.237 800.474L683.004 803.077L661.836 793.047ZM685.751 782.707L686.943 780.191L716.786 794.331L715.594 796.847L685.751 782.707ZM696.364 809.407L697.598 806.804L727.701 821.068L726.468 823.67L696.364 809.407ZM670.087 795.363L726.426 742.596L728.682 743.665L717.635 755.322L672.95 796.719L670.087 795.363Z" fill="#FFFEFC" fill-opacity="0.18"/>
<path d="M8.2591 751.424L9.49226 748.821L17.7339 752.726L46.261 692.519L38.0193 688.614L39.2525 686.011L69.7034 700.439L68.4702 703.041L59.9682 699.013L46.8145 726.775L71.3661 738.407L84.5198 710.646L76.0178 706.618L77.251 704.015L107.875 718.525L106.642 721.128L98.227 717.141L69.6999 777.348L78.1151 781.336L76.882 783.938L46.2576 769.428L47.4908 766.825L55.9927 770.854L70.1329 741.01L45.5814 729.377L31.4412 759.221L39.9431 763.249L38.71 765.852L8.2591 751.424ZM121.585 803.525L126.302 752.539L125.955 752.375L126.956 748.918L141.487 733.495L143.743 734.564L136.593 810.637L121.585 803.525ZM76.8969 783.945L78.13 781.343L99.2982 791.372L98.065 793.975L76.8969 783.945ZM100.811 773.605L102.003 771.089L131.847 785.229L130.655 787.745L100.811 773.605ZM111.425 800.305L112.658 797.702L142.762 811.966L141.529 814.569L111.425 800.305ZM85.1479 786.261L141.487 733.495L143.743 734.564L132.696 746.22L88.0108 787.618L85.1479 786.261ZM194.509 841.052L182.005 765.653L181.658 765.488L156.543 818.495L166.086 823.017L164.852 825.62L141.949 814.768L143.182 812.165L152.725 816.687L181.252 756.479L171.709 751.957L172.943 749.355L198.275 761.358L207.398 812.953L207.745 813.117L224.803 777.114L216.128 773.003L217.361 770.401L238.529 780.43L237.296 783.033L228.621 778.923L198.326 842.861L194.509 841.052ZM242.605 863.84C238.093 861.703 234.31 858.777 231.254 855.063C228.256 851.376 226.035 847.243 224.593 842.665C223.208 838.114 222.636 833.416 222.877 828.573C223.176 823.757 224.381 819.123 226.491 814.669C228.601 810.216 231.411 806.377 234.921 803.154C238.517 799.9 242.487 797.426 246.831 795.731C251.26 794.005 255.837 793.164 260.562 793.207C265.344 793.277 269.991 794.381 274.502 796.519C279.014 798.656 282.811 801.553 285.894 805.21C288.978 808.866 291.225 812.941 292.637 817.434C294.135 821.897 294.734 826.536 294.435 831.352C294.221 836.138 293.06 840.757 290.949 845.211C288.839 849.664 285.987 853.518 282.391 856.771C278.853 860.053 274.856 862.585 270.399 864.368C266 866.179 261.396 867.078 256.586 867.066C251.776 867.053 247.116 865.978 242.605 863.84ZM243.957 860.763C246.906 862.16 249.599 862.905 252.034 862.997C254.497 863.03 256.87 862.207 259.153 860.527C261.494 858.874 263.87 856.176 266.282 852.432C268.751 848.715 271.452 843.763 274.384 837.574C277.316 831.386 279.425 826.188 280.71 821.981C282.08 817.744 282.65 814.225 282.419 811.424C282.273 808.593 281.393 806.264 279.78 804.437C278.194 802.553 275.927 800.912 272.977 799.514C270.085 798.144 267.408 797.442 264.945 797.408C262.568 797.344 260.251 798.123 257.995 799.745C255.739 801.368 253.377 804.037 250.907 807.754C248.523 811.44 245.879 816.349 242.974 822.479C239.987 828.783 237.795 834.083 236.397 838.378C235.085 842.643 234.501 846.191 234.647 849.022C234.878 851.823 235.758 854.152 237.286 856.009C238.899 857.835 241.123 859.42 243.957 860.763ZM291.843 885.789L293.076 883.186L301.578 887.215L331.589 868.715L327.589 825.815L321.256 822.814L322.489 820.212L353.894 835.092L352.661 837.694L343.899 833.543L346.494 860.799L370.359 846.08L361.163 841.723L362.396 839.12L382.437 848.615L381.203 851.218L373.482 847.56L346.736 864.1L351.202 910.727L357.708 913.81L356.475 916.412L325.677 901.82L326.91 899.217L334.805 902.958L331.831 872.017L304.788 888.736L314.851 893.504L313.618 896.106L291.843 885.789ZM370.781 923.191L372.015 920.588L408.712 937.976C411.951 939.51 415.109 939.945 418.187 939.278C421.264 938.612 424.082 937.149 426.639 934.891C429.254 932.66 431.372 929.91 432.992 926.64L436.462 928.285L426.391 949.539L370.781 923.191ZM379.64 925.795L410.016 861.683L423.724 868.178L393.347 932.289L379.64 925.795ZM400.542 860.381L401.775 857.778L433.961 873.028L432.728 875.631L400.542 860.381ZM460.407 967.037C455.375 964.653 451.252 961.921 448.038 958.84C444.909 955.728 442.904 952.335 442.025 948.661C441.203 945.014 441.752 941.166 443.67 937.118L465.456 891.138L457.041 887.151L458.274 884.548L489.592 899.387L488.359 901.99L479.163 897.632L457.624 943.092C455.075 948.471 454.583 952.947 456.147 956.521C457.77 960.122 460.836 962.992 465.348 965.129C470.206 967.431 474.612 967.996 478.567 966.825C482.521 965.653 485.691 962.551 488.075 957.52L509.614 912.06L501.372 908.155L502.605 905.553L523.253 915.336L522.02 917.938L512.91 913.622L491.166 959.515C488.206 965.762 484.191 969.454 479.119 970.592C474.047 971.73 467.81 970.545 460.407 967.037ZM494.898 981.999L496.131 979.396L504.373 983.301L532.9 923.094L524.658 919.189L525.891 916.586L556.342 931.014L555.109 933.617L546.607 929.588L518.08 989.796L526.582 993.824L525.349 996.427L494.898 981.999ZM531.335 999.263L532.609 996.574L566.097 1012.44L564.822 1015.13L531.335 999.263ZM542.275 1002.85L534.841 960.026L550.413 955.187L559.453 1010.99L542.275 1002.85ZM527.672 964.171L529.727 959.833L576.597 942.523L580.588 944.414L527.672 964.171ZM564.739 938.179L565.972 935.577L590.524 947.209L589.29 949.812L564.739 938.179ZM597.803 1029.16L602.521 978.177L602.174 978.012L603.174 974.556L617.705 959.132L619.961 960.201L612.812 1036.27L597.803 1029.16ZM553.115 1009.58L554.348 1006.98L575.516 1017.01L574.283 1019.61L553.115 1009.58ZM577.03 999.243L578.222 996.727L608.065 1010.87L606.873 1013.38L577.03 999.243ZM587.643 1025.94L588.877 1023.34L618.98 1037.6L617.747 1040.21L587.643 1025.94ZM561.366 1011.9L617.705 959.132L619.961 960.201L608.914 971.858L564.229 1013.26L561.366 1011.9Z" fill="#FFFEFC" fill-opacity="0.18"/>
</svg>
