<svg width="31" height="30" viewBox="0 0 31 30" fill="none" xmlns="http://www.w3.org/2000/svg">
<path d="M25.8165 25.562H21.3271V18.6006C21.3271 16.9406 21.2972 14.8037 18.9922 14.8037C16.6539 14.8037 16.2962 16.6123 16.2962 18.4798V25.5616H11.8067V11.2461H16.1166V13.2025H16.1769C16.6082 12.4723 17.2315 11.8716 17.9803 11.4644C18.7291 11.0571 19.5755 10.8587 20.4292 10.89C24.9795 10.89 25.8184 13.8535 25.8184 17.7088L25.8165 25.562ZM6.74115 9.2893C6.22588 9.28939 5.72213 9.13819 5.29365 8.85481C4.86516 8.57144 4.53119 8.16862 4.33392 7.69729C4.13664 7.22596 4.08494 6.7073 4.18538 6.20688C4.28581 5.70647 4.53387 5.24678 4.89816 4.88595C5.26244 4.52512 5.72662 4.27935 6.23197 4.17973C6.73733 4.08011 7.26116 4.1311 7.73724 4.32626C8.21333 4.52142 8.62028 4.85198 8.90662 5.27614C9.19297 5.70031 9.34587 6.19902 9.34596 6.70922C9.34602 7.04798 9.27868 7.38344 9.14781 7.69643C9.01694 8.00943 8.82511 8.29384 8.58323 8.53342C8.34135 8.773 8.05416 8.96306 7.7381 9.09276C7.42204 9.22245 7.08328 9.28924 6.74115 9.2893ZM8.98586 25.562H4.49176V11.2461H8.98586V25.562ZM28.0547 0.00204395H2.23583C1.64982 -0.00450411 1.08512 0.219579 0.66588 0.625053C0.24664 1.03053 0.007152 1.58422 0 2.16445V27.8351C0.00690722 28.4156 0.246255 28.9697 0.665481 29.3756C1.08471 29.7815 1.64953 30.006 2.23583 29.9998H28.0547C28.6422 30.0071 29.2086 29.7832 29.6295 29.3774C30.0503 28.9715 30.2913 28.4168 30.2994 27.8351V2.1626C30.291 1.58121 30.0499 1.02689 29.629 0.62143C29.2081 0.215966 28.6419 -0.00747679 28.0547 0.000191027" fill="#0A66C2"/>
</svg>
